<svg xmlns="http://www.w3.org/2000/svg" xmlns:xlink="http://www.w3.org/1999/xlink" version="1.1" width="1000" height="1000" viewBox="0 0 1000 1000" xml:space="preserve">
<desc>Created with Fabric.js 3.5.0</desc>
<defs>
</defs>
<rect x="0" y="0" width="100%" height="100%" fill="#ffffff"/>
<g transform="matrix(6.3503 0 0 6.5198 499.994 738.3862)" id="197367">
<g style="" vector-effect="non-scaling-stroke">
		<g transform="matrix(1 0 0 1 0.0549 -42.1889)" id="path0">
<path style="stroke: none; stroke-width: 1; stroke-dasharray: none; stroke-linecap: butt; stroke-dashoffset: 0; stroke-linejoin: miter; stroke-miterlimit: 4; is-custom-font: none; font-file-url: none; fill: rgb(236,230,222); fill-rule: evenodd; opacity: 1;" transform=" translate(-200.0549, -157.8111)" d="M 135.116 96.956 C 135.094 97.234 135.05 99.214 135.018 101.357 C 134.965 104.96 134.902 105.257 134.18 105.295 C 132.178 105.398 132.065 105.477 131.823 106.934 C 131.689 107.739 131.519 108.597 131.445 108.839 C 131.355 109.136 130.014 108.897 127.343 108.109 C 125.16 107.465 123.257 107.091 123.113 107.278 C 122.765 107.73 123.012 203.125 123.361 203.125 C 123.511 203.125 123.587 181.659 123.532 155.422 C 123.436 110.067 123.465 107.73 124.118 107.921 C 124.496 108.032 126.227 108.534 127.966 109.037 L 131.128 109.951 L 131.396 124.406 C 131.544 132.356 131.543 151.361 131.395 166.639 L 131.124 194.418 L 137.535 194.641 C 146.543 194.954 161.398 197.022 168.942 199.013 C 178.546 201.547 186.771 204.618 194.982 208.736 L 199.762 211.133 L 205.448 208.316 C 210.662 205.733 214.253 204.267 221.68 201.688 C 233.045 197.742 251.993 194.531 263.92 194.531 L 268.879 194.531 L 268.623 160.254 C 268.482 141.401 268.48 122.364 268.618 117.949 L 268.869 109.922 L 272.032 109.018 C 273.772 108.521 275.504 108.025 275.882 107.917 C 276.535 107.729 276.564 110.068 276.468 155.422 C 276.413 181.659 276.475 203.125 276.608 203.125 C 276.851 203.125 277.342 107.358 277.099 107.071 C 277.027 106.986 275.451 107.324 273.596 107.822 C 270.389 108.684 270.205 108.695 269.833 108.031 C 269.479 107.398 268.972 106.875 267.5 105.623 C 267.124 105.303 266.764 105.34 266.113 105.765 L 265.234 106.34 L 265.228 101.9 C 265.225 99.459 265.074 97.227 264.893 96.941 C 264.376 96.125 248.694 96.964 240.8 98.23 C 236.512 98.917 232.534 99.686 231.836 99.962 C 231.406 100.132 228.682 100.844 225.781 101.544 C 222.881 102.244 220.332 102.947 220.117 103.107 C 219.902 103.266 218.145 103.878 216.211 104.465 C 214.277 105.053 212.344 105.747 211.914 106.008 C 211.484 106.268 209.902 106.985 208.398 107.6 C 206.895 108.216 205.4 108.932 205.078 109.192 C 204.756 109.452 203.393 110.151 202.05 110.745 L 199.607 111.826 L 197.362 110.626 C 193.554 108.589 192.089 107.859 189.353 106.633 C 185.127 104.74 176.23 101.724 172.642 100.967 C 170.824 100.583 169.16 100.137 168.945 99.975 C 166.582 98.194 135.24 95.397 135.116 96.956 M 154.848 98.081 C 170.949 100.218 188.9 105.921 198.484 111.947 C 199.262 112.436 200.053 112.69 200.242 112.512 C 200.96 111.835 209.347 107.796 213.202 106.271 C 226.593 100.972 245.924 97.281 260.352 97.269 L 264.258 97.266 L 264.191 143.652 L 264.125 190.039 L 257.941 190.29 C 239.832 191.026 215.551 197.288 203.625 204.298 L 202.368 205.037 L 202.258 194.543 L 202.148 184.049 L 204.283 183.783 C 222.405 181.521 235.198 162.77 230.898 144.775 C 223.579 114.146 183.345 111.018 170.896 140.11 C 163.016 158.524 176.045 181.328 195.858 183.801 L 197.852 184.049 L 197.742 194.564 C 197.681 200.347 197.555 205.078 197.462 205.078 C 197.369 205.078 195.7 204.297 193.755 203.343 C 178.73 195.976 159.527 191.227 141.03 190.303 L 135.742 190.039 L 135.711 143.638 L 135.68 97.238 L 142.547 97.299 C 146.636 97.336 151.612 97.652 154.848 98.081 M 206.055 124.407 C 225.191 129.481 233.202 153.017 221.28 169.14 C 209.9 184.531 185.837 183.09 175.869 166.421 C 166.126 150.129 175.219 127.705 192.969 124.254 C 194.15 124.024 195.469 123.755 195.898 123.656 C 197.371 123.317 203.71 123.786 206.055 124.407 M 196.388 133.598 C 194.903 135.083 194.832 135.261 195.03 137.015 C 195.536 141.505 201.642 143.066 204.09 139.331 C 207.295 134.439 200.561 129.426 196.388 133.598 M 192.188 146.875 C 192.188 147.799 192.358 148.047 192.994 148.047 C 195.342 148.047 195.313 147.905 195.313 159.167 C 195.313 170.51 195.473 169.745 193.018 170.096 C 192.631 170.152 192.338 170.631 192.268 171.324 L 192.152 172.461 L 199.885 172.393 L 207.617 172.326 L 207.74 171.124 C 207.851 170.033 207.759 169.922 206.743 169.922 C 204.695 169.922 204.688 169.877 204.688 157.344 L 204.688 145.703 L 198.438 145.703 L 192.188 145.703 L 192.188 146.875 M 132.728 202.632 C 133.863 202.711 135.621 202.711 136.634 202.63 C 137.647 202.55 136.719 202.485 134.57 202.486 C 132.422 202.487 131.593 202.553 132.728 202.632 M 261.833 202.634 C 263.292 202.709 265.577 202.709 266.911 202.633 C 268.245 202.557 267.051 202.495 264.258 202.496 C 261.465 202.496 260.374 202.558 261.833 202.634 M 125.879 203.014 C 126.47 203.104 127.437 203.104 128.027 203.014 C 128.618 202.925 128.135 202.851 126.953 202.851 C 125.771 202.851 125.288 202.925 125.879 203.014 M 141.9 203.015 C 142.494 203.104 143.373 203.102 143.853 203.009 C 144.333 202.917 143.848 202.843 142.773 202.846 C 141.699 202.849 141.306 202.925 141.9 203.015 M 254.004 203.014 C 254.595 203.104 255.562 203.104 256.152 203.014 C 256.743 202.925 256.26 202.851 255.078 202.851 C 253.896 202.851 253.413 202.925 254.004 203.014 M 271.973 203.014 C 272.563 203.104 273.53 203.104 274.121 203.014 C 274.712 202.925 274.229 202.851 273.047 202.851 C 271.865 202.851 271.382 202.925 271.973 203.014 M 147.266 203.505 C 147.803 203.683 148.945 203.847 149.805 203.87 C 150.664 203.892 153.037 204.155 155.078 204.454 C 160.555 205.255 163.503 205.571 163.271 205.333 C 163.005 205.061 152.588 203.631 149.023 203.377 C 147.314 203.255 146.655 203.303 147.266 203.505 M 247.656 203.398 C 239.216 204.311 223.176 208.368 217.111 211.123 C 214.379 212.364 214.858 212.354 218.204 211.099 C 223.578 209.085 233.715 206.218 238.281 205.422 C 245.169 204.222 247.229 203.916 248.633 203.886 C 249.492 203.867 250.547 203.7 250.977 203.516 C 251.825 203.151 250.405 203.101 247.656 203.398 M 163.672 205.625 C 163.672 205.711 165.034 206.076 166.699 206.436 C 171.282 207.428 177.243 209.229 182.179 211.114 C 183.656 211.678 184.943 212.063 185.037 211.968 C 185.491 211.514 174.601 207.848 168.656 206.453 C 164.44 205.464 163.672 205.336 163.672 205.625 M 186.488 212.833 C 186.601 213.016 187.534 213.481 188.561 213.867 C 189.589 214.254 192.316 215.51 194.622 216.66 C 198.993 218.839 200.386 219.345 198.047 217.905 C 195.293 216.21 186.075 212.165 186.488 212.833 M 208.789 214.775 C 203.132 217.502 200.089 219.098 200.5 219.122 C 200.882 219.145 213.672 212.865 213.672 212.655 C 213.672 212.417 213.767 212.376 208.789 214.775" stroke-linecap="round"/>
</g>
		<g transform="matrix(1 0 0 1 -0.6846 -48.2237)" id="path1">
<path style="stroke: none; stroke-width: 1; stroke-dasharray: none; stroke-linecap: butt; stroke-dashoffset: 0; stroke-linejoin: miter; stroke-miterlimit: 4; is-custom-font: none; font-file-url: none; fill: rgb(140,21,20); fill-rule: evenodd; opacity: 1;" transform=" translate(-199.3154, -151.7764)" d="M 193.588 124.843 C 192.317 125.15 191.009 125.619 190.681 125.884 C 190.207 126.268 190.144 126.268 190.375 125.883 C 190.572 125.555 190.471 125.474 190.062 125.631 C 189.729 125.759 189.539 125.995 189.638 126.156 C 189.857 126.51 188.123 127.344 187.167 127.344 C 186.79 127.344 185.811 127.957 184.993 128.707 C 184.175 129.456 183.305 129.95 183.061 129.803 C 182.817 129.657 182.858 129.835 183.153 130.198 C 183.623 130.778 183.593 130.859 182.908 130.859 C 182.478 130.859 181.91 131.121 181.644 131.441 C 181.379 131.761 180.976 131.908 180.749 131.768 C 180.489 131.607 180.431 131.761 180.593 132.183 C 180.746 132.582 180.694 132.756 180.464 132.614 C 180.251 132.482 179.912 132.807 179.711 133.336 C 179.511 133.864 179.027 134.534 178.636 134.824 C 178.246 135.114 177.488 136.01 176.952 136.814 C 176.415 137.618 175.867 138.277 175.732 138.279 C 175.598 138.28 175.377 138.836 175.242 139.514 C 175.106 140.191 174.784 141 174.526 141.312 C 172.792 143.401 172.083 156.087 173.541 158.947 C 173.914 159.678 174.219 160.567 174.219 160.923 C 174.219 161.278 174.477 161.911 174.792 162.328 C 175.108 162.745 175.371 163.308 175.378 163.579 C 175.385 163.85 176.094 165.101 176.953 166.36 C 177.813 167.619 178.516 168.767 178.516 168.911 C 178.516 169.423 180.024 170.783 180.361 170.575 C 180.549 170.458 180.942 170.747 181.235 171.217 C 181.736 172.022 181.724 172.039 181.02 171.506 C 180.317 170.974 180.31 170.982 180.912 171.642 C 181.263 172.027 181.995 172.369 182.539 172.402 C 183.291 172.447 183.429 172.579 183.114 172.958 C 182.798 173.34 182.866 173.392 183.407 173.185 C 183.893 172.999 184.024 173.057 183.83 173.371 C 183.675 173.622 183.744 173.828 183.984 173.828 C 184.225 173.828 184.321 173.99 184.199 174.187 C 184.077 174.384 184.506 174.662 185.153 174.804 C 185.799 174.946 186.328 175.224 186.328 175.422 C 186.328 175.619 186.592 175.781 186.914 175.781 C 187.236 175.781 187.5 175.928 187.5 176.108 C 187.5 176.648 194.849 179.011 195.902 178.81 C 196.437 178.708 196.875 178.775 196.875 178.96 C 196.875 179.145 198.292 179.297 200.023 179.297 C 201.821 179.297 203.077 179.144 202.951 178.94 C 202.83 178.744 203.215 178.638 203.807 178.703 C 204.937 178.828 209.874 177.055 209.606 176.619 C 209.521 176.481 210.084 176.321 210.859 176.264 C 211.633 176.207 212.404 175.943 212.572 175.678 C 212.741 175.412 212.881 175.363 212.885 175.568 C 212.888 175.772 213.586 175.26 214.437 174.43 C 215.287 173.599 215.874 172.729 215.742 172.495 C 215.609 172.261 215.64 172.198 215.812 172.353 C 216.669 173.127 221 168.712 222.701 165.33 C 223.213 164.311 223.809 163.347 224.023 163.19 C 224.238 163.032 224.261 162.9 224.073 162.897 C 223.886 162.893 223.909 162.671 224.125 162.402 C 224.728 161.653 225.864 156.139 225.875 153.906 C 225.896 149.701 225.618 145.703 225.305 145.703 C 225.091 145.703 225.013 145.452 225.13 145.146 C 225.248 144.839 225.079 144.368 224.754 144.099 C 224.43 143.83 224.248 143.29 224.35 142.899 C 224.452 142.508 224.377 142.09 224.182 141.97 C 223.987 141.849 223.828 141.41 223.828 140.993 C 223.828 140.576 223.658 140.234 223.45 140.234 C 223.242 140.234 223.184 139.942 223.321 139.584 C 223.489 139.147 223.421 139.027 223.113 139.217 C 222.812 139.403 222.656 139.176 222.656 138.553 C 222.656 138.032 222.244 137.187 221.741 136.674 C 221.237 136.162 220.515 135.26 220.136 134.671 C 219.756 134.082 219.262 133.714 219.038 133.853 C 218.809 133.994 218.745 133.918 218.891 133.681 C 219.565 132.591 210.936 126.18 209.524 126.722 C 209.205 126.844 209.031 126.802 209.139 126.629 C 209.435 126.15 204.803 124.724 203.643 124.937 C 203.39 124.983 203.072 124.84 202.936 124.62 C 202.575 124.036 196.304 124.186 193.588 124.843 M 207.757 129.254 C 208.126 129.488 208.156 129.671 207.854 129.857 C 207.359 130.163 206.641 129.818 206.641 129.274 C 206.641 128.82 207.059 128.812 207.757 129.254 M 203.038 131.367 C 203.313 131.374 203.473 131.571 203.394 131.803 C 203.315 132.036 203.747 132.595 204.354 133.046 C 204.961 133.496 205.343 133.979 205.203 134.12 C 205.063 134.26 205.134 134.375 205.362 134.375 C 205.59 134.375 205.88 134.648 206.008 134.981 C 206.147 135.342 206.078 135.487 205.839 135.339 C 205.579 135.178 205.529 135.48 205.698 136.198 C 206.052 137.697 206.051 137.586 205.715 138.574 C 205.551 139.058 205.264 139.453 205.078 139.453 C 204.892 139.453 204.631 139.796 204.499 140.214 C 204.366 140.633 203.912 141.085 203.49 141.219 C 203.068 141.353 202.841 141.653 202.984 141.885 C 203.141 142.138 203.063 142.195 202.791 142.027 C 202.195 141.659 200.705 142.139 200.994 142.606 C 201.117 142.806 200.758 142.969 200.195 142.969 C 199.633 142.969 199.271 142.809 199.392 142.615 C 199.512 142.42 199.259 142.352 198.829 142.465 C 198.399 142.577 198.047 142.478 198.047 142.245 C 198.047 142.012 197.816 141.91 197.534 142.018 C 195.935 142.632 192.57 136.188 193.987 135.228 C 194.203 135.081 194.597 134.434 194.862 133.789 C 195.562 132.084 198.444 130.778 200.781 131.107 C 201.748 131.243 202.764 131.36 203.038 131.367 M 205.074 145.306 C 205.271 145.625 205.443 150.847 205.456 156.91 C 205.48 167.985 205.574 169.199 206.392 169.101 C 208.31 168.871 208.594 169.105 208.594 170.915 C 208.594 173.45 208.263 173.654 204.388 173.505 C 201.937 173.411 200.972 173.514 200.725 173.895 C 200.448 174.325 200.333 174.325 200.057 173.898 C 199.809 173.514 198.771 173.413 196.004 173.507 C 191.931 173.645 191.402 173.425 191.412 171.599 C 191.42 170.159 191.924 169.424 193.017 169.257 C 194.47 169.036 194.531 168.584 194.432 158.831 C 194.328 148.725 194.422 149.139 192.109 148.653 C 191.184 148.46 191.068 148.27 191.171 147.126 C 191.353 145.1 191.515 145.023 195.782 144.95 C 197.981 144.912 199.816 144.846 199.859 144.804 C 200.273 144.394 204.779 144.829 205.074 145.306" stroke-linecap="round"/>
</g>
		<g transform="matrix(1 0 0 1 -0.0753 -42.013)" id="path2">
<path style="stroke: none; stroke-width: 1; stroke-dasharray: none; stroke-linecap: butt; stroke-dashoffset: 0; stroke-linejoin: miter; stroke-miterlimit: 4; is-custom-font: none; font-file-url: none; fill: rgb(13,67,43); fill-rule: evenodd; opacity: 1;" transform=" translate(-199.9247, -157.987)" d="M 135.677 118.597 C 135.82 130.39 135.937 151.245 135.937 164.941 L 135.938 189.844 L 137.478 189.844 C 139.38 189.844 153.177 191.281 156.641 191.84 C 170.534 194.081 181.561 197.416 193.066 202.854 L 197.656 205.024 L 197.656 194.504 L 197.656 183.984 L 196.742 183.984 C 190.553 183.984 180.168 178.16 175.499 172.07 C 154.6 144.815 184.227 107.705 214.453 123.276 C 235.951 134.351 237.838 165.376 217.821 178.662 C 213.632 181.443 206.77 183.984 203.453 183.984 L 202.344 183.984 L 202.344 194.323 L 202.344 204.662 L 206.152 202.884 C 222.781 195.122 239.575 191.057 259.375 189.999 C 261.846 189.867 263.891 189.734 263.919 189.704 C 263.948 189.673 264.047 168.862 264.14 143.457 L 264.309 97.266 L 261.744 97.274 C 242.906 97.338 220.89 102.321 205.068 110.102 L 199.784 112.7 L 194.277 109.923 C 179.027 102.233 161.338 97.904 143.002 97.374 L 135.418 97.154 L 135.677 118.597 M 123.568 124.216 C 123.711 133.312 123.828 154.657 123.828 171.651 L 123.828 202.55 L 134.082 202.559 C 152.359 202.576 172.319 205.971 183.398 210.948 C 184.258 211.334 186.455 212.305 188.281 213.107 C 190.107 213.909 193.519 215.522 195.864 216.692 L 200.126 218.82 L 206.606 215.681 C 226.228 206.176 241.988 202.607 264.498 202.571 L 276.065 202.553 L 276.26 155.28 C 276.367 129.281 276.432 107.976 276.406 107.938 C 276.379 107.899 274.689 108.362 272.651 108.966 L 268.945 110.064 L 268.846 152.297 L 268.747 194.531 L 264.185 194.531 C 259.744 194.531 257.797 194.699 247.656 195.954 C 233.249 197.738 217.196 202.534 204.686 208.794 L 199.801 211.237 L 196.287 209.47 C 182.822 202.699 169.926 198.635 155.273 196.543 C 145.926 195.209 143.353 194.943 137.207 194.673 L 131.25 194.411 L 131.25 152.296 L 131.25 110.181 L 127.832 109.141 C 125.952 108.568 124.165 108.005 123.861 107.89 C 123.387 107.709 123.345 110.042 123.568 124.216" stroke-linecap="round"/>
</g>
		<g transform="matrix(1 0 0 1 -0.64 -48.4365)" id="path3">
<path style="stroke: none; stroke-width: 1; stroke-dasharray: none; stroke-linecap: butt; stroke-dashoffset: 0; stroke-linejoin: miter; stroke-miterlimit: 4; is-custom-font: none; font-file-url: none; fill: rgb(115,27,23); fill-rule: evenodd; opacity: 1;" transform=" translate(-199.36, -151.5635)" d="M 194.849 123.834 C 173.503 127.205 164.48 154.151 179.173 170.645 C 190.89 183.799 212.74 182.293 222.114 167.685 C 235.319 147.11 218.522 120.094 194.849 123.834 M 202.936 124.62 C 203.072 124.84 203.39 124.983 203.643 124.937 C 204.803 124.724 209.435 126.15 209.139 126.629 C 209.031 126.802 209.205 126.844 209.524 126.722 C 210.936 126.18 219.565 132.591 218.891 133.681 C 218.745 133.918 218.809 133.994 219.038 133.853 C 219.262 133.714 219.756 134.082 220.136 134.671 C 220.515 135.26 221.237 136.162 221.741 136.674 C 222.244 137.187 222.656 138.032 222.656 138.553 C 222.656 139.176 222.812 139.403 223.113 139.217 C 223.421 139.027 223.489 139.147 223.321 139.584 C 223.184 139.942 223.242 140.234 223.45 140.234 C 223.658 140.234 223.828 140.576 223.828 140.993 C 223.828 141.41 223.987 141.849 224.182 141.97 C 224.377 142.09 224.452 142.508 224.35 142.899 C 224.248 143.29 224.43 143.83 224.754 144.099 C 225.079 144.368 225.248 144.839 225.13 145.146 C 225.013 145.452 225.091 145.703 225.305 145.703 C 225.618 145.703 225.896 149.701 225.875 153.906 C 225.864 156.139 224.728 161.653 224.125 162.402 C 223.909 162.671 223.886 162.893 224.073 162.897 C 224.261 162.9 224.238 163.032 224.023 163.19 C 223.809 163.347 223.213 164.311 222.701 165.33 C 221 168.712 216.669 173.127 215.812 172.353 C 215.64 172.198 215.609 172.261 215.742 172.495 C 215.874 172.729 215.287 173.599 214.437 174.43 C 213.586 175.26 212.888 175.772 212.885 175.568 C 212.881 175.363 212.741 175.412 212.572 175.678 C 212.404 175.943 211.633 176.207 210.859 176.264 C 210.084 176.321 209.521 176.481 209.606 176.619 C 209.874 177.055 204.937 178.828 203.807 178.703 C 203.215 178.638 202.83 178.744 202.951 178.94 C 203.077 179.144 201.821 179.297 200.023 179.297 C 198.292 179.297 196.875 179.145 196.875 178.96 C 196.875 178.775 196.437 178.708 195.902 178.81 C 194.849 179.011 187.5 176.648 187.5 176.108 C 187.5 175.928 187.236 175.781 186.914 175.781 C 186.592 175.781 186.328 175.619 186.328 175.422 C 186.328 175.224 185.799 174.946 185.153 174.804 C 184.506 174.662 184.077 174.384 184.199 174.187 C 184.321 173.99 184.225 173.828 183.984 173.828 C 183.744 173.828 183.675 173.622 183.83 173.371 C 184.024 173.057 183.893 172.999 183.407 173.185 C 182.866 173.392 182.798 173.34 183.114 172.958 C 183.429 172.579 183.291 172.447 182.539 172.402 C 181.995 172.369 181.263 172.027 180.912 171.642 C 180.31 170.982 180.317 170.974 181.02 171.506 C 181.724 172.039 181.736 172.022 181.235 171.217 C 180.942 170.747 180.549 170.458 180.361 170.575 C 180.024 170.783 178.516 169.423 178.516 168.911 C 178.516 168.767 177.813 167.619 176.953 166.36 C 176.094 165.101 175.385 163.85 175.378 163.579 C 175.371 163.308 175.108 162.745 174.792 162.328 C 174.477 161.911 174.219 161.278 174.219 160.923 C 174.219 160.567 173.914 159.678 173.541 158.947 C 172.083 156.087 172.792 143.401 174.526 141.312 C 174.784 141 175.106 140.191 175.242 139.514 C 175.377 138.836 175.598 138.28 175.732 138.279 C 175.867 138.277 176.415 137.618 176.952 136.814 C 177.488 136.01 178.246 135.114 178.636 134.824 C 179.027 134.534 179.511 133.864 179.711 133.336 C 179.912 132.807 180.251 132.482 180.464 132.614 C 180.694 132.756 180.746 132.582 180.593 132.183 C 180.431 131.761 180.489 131.607 180.749 131.768 C 180.976 131.908 181.379 131.761 181.644 131.441 C 181.91 131.121 182.478 130.859 182.908 130.859 C 183.593 130.859 183.623 130.778 183.153 130.198 C 182.858 129.835 182.817 129.657 183.061 129.803 C 183.305 129.95 184.175 129.456 184.993 128.707 C 185.811 127.957 186.79 127.344 187.167 127.344 C 188.123 127.344 189.857 126.51 189.638 126.156 C 189.539 125.995 189.729 125.759 190.062 125.631 C 190.471 125.474 190.572 125.555 190.375 125.883 C 190.144 126.268 190.207 126.268 190.681 125.884 C 192.258 124.608 202.289 123.573 202.936 124.62 M 206.641 129.274 C 206.641 129.818 207.359 130.163 207.854 129.857 C 208.156 129.671 208.126 129.488 207.757 129.254 C 207.059 128.812 206.641 128.82 206.641 129.274 M 197.183 131.738 C 195.938 132.333 195.187 132.996 194.862 133.789 C 194.597 134.434 194.203 135.081 193.987 135.228 C 192.57 136.188 195.935 142.632 197.534 142.018 C 197.816 141.91 198.047 142.012 198.047 142.245 C 198.047 142.478 198.399 142.577 198.829 142.465 C 199.259 142.352 199.512 142.42 199.392 142.615 C 199.271 142.809 199.633 142.969 200.195 142.969 C 200.877 142.969 201.124 142.816 200.936 142.512 C 200.744 142.202 200.869 142.137 201.323 142.312 C 201.772 142.484 201.902 142.421 201.717 142.121 C 201.529 141.817 201.71 141.744 202.283 141.894 C 202.747 142.015 203.035 141.968 202.925 141.789 C 202.814 141.609 203.068 141.353 203.49 141.219 C 203.912 141.085 204.366 140.633 204.499 140.214 C 204.631 139.796 204.892 139.453 205.078 139.453 C 205.264 139.453 205.551 139.058 205.715 138.574 C 206.051 137.586 206.052 137.697 205.698 136.198 C 205.529 135.48 205.579 135.178 205.839 135.339 C 206.078 135.487 206.147 135.342 206.008 134.981 C 205.88 134.648 205.59 134.375 205.362 134.375 C 205.134 134.375 205.063 134.26 205.203 134.12 C 205.343 133.979 204.961 133.496 204.354 133.046 C 203.747 132.595 203.315 132.036 203.394 131.803 C 203.473 131.571 203.313 131.374 203.038 131.367 C 202.764 131.36 201.748 131.243 200.781 131.107 C 199.406 130.913 198.623 131.051 197.183 131.738 M 201.673 132.176 C 206.853 134.383 205.558 141.513 199.977 141.513 C 194.542 141.513 192.862 134.783 197.684 132.325 C 199.299 131.501 200.025 131.474 201.673 132.176 M 199.859 144.804 C 199.816 144.846 197.981 144.912 195.782 144.95 C 191.515 145.023 191.353 145.1 191.171 147.126 C 191.068 148.27 191.184 148.46 192.109 148.653 C 194.422 149.139 194.328 148.725 194.432 158.831 C 194.531 168.584 194.47 169.036 193.017 169.257 C 191.924 169.424 191.42 170.159 191.412 171.599 C 191.402 173.425 191.931 173.645 196.004 173.507 C 198.771 173.413 199.809 173.514 200.057 173.898 C 200.333 174.325 200.448 174.325 200.725 173.895 C 200.972 173.514 201.937 173.411 204.388 173.505 C 208.263 173.654 208.594 173.45 208.594 170.915 C 208.594 169.105 208.31 168.871 206.392 169.101 C 205.574 169.199 205.48 167.985 205.456 156.91 C 205.443 150.847 205.271 145.625 205.074 145.306 C 204.779 144.829 200.273 144.394 199.859 144.804 M 204.688 157.359 L 204.688 169.015 L 205.682 169.469 C 206.23 169.718 206.985 169.922 207.362 169.922 C 207.914 169.922 208.015 170.186 207.887 171.289 L 207.727 172.656 L 199.957 172.656 L 192.188 172.656 L 192.188 171.289 C 192.188 170.168 192.333 169.922 192.994 169.922 C 195.334 169.922 195.313 170.021 195.313 159.188 C 195.313 148.388 195.238 148.047 192.882 148.047 C 192.371 148.047 192.188 147.738 192.188 146.875 L 192.188 145.703 L 198.438 145.703 L 204.688 145.703 L 204.688 157.359" stroke-linecap="round"/>
</g>
		<g transform="matrix(1 0 0 1 0.0709 -49.7716)" id="path4">
<path style="stroke: none; stroke-width: 1; stroke-dasharray: none; stroke-linecap: butt; stroke-dashoffset: 0; stroke-linejoin: miter; stroke-miterlimit: 4; is-custom-font: none; font-file-url: none; fill: rgb(131,144,132); fill-rule: evenodd; opacity: 1;" transform=" translate(-200.0709, -150.2285)" d="M 255.376 97.542 C 255.862 97.635 256.565 97.632 256.938 97.534 C 257.312 97.436 256.914 97.36 256.055 97.364 C 255.195 97.368 254.89 97.448 255.376 97.542 M 198.34 119.817 C 199.253 119.9 200.747 119.9 201.66 119.817 C 202.573 119.735 201.826 119.668 200 119.668 C 198.174 119.668 197.427 119.735 198.34 119.817 M 268.536 134.57 C 268.536 142.305 268.588 145.524 268.652 141.725 C 268.716 137.925 268.716 131.597 268.652 127.662 C 268.588 123.727 268.536 126.836 268.536 134.57 M 276.268 164.522 C 276.177 200.485 276.133 202.687 275.488 202.856 C 274.848 203.023 274.848 203.037 275.501 203.08 C 276.596 203.151 276.574 204.062 276.466 164.258 L 276.363 126.367 L 276.268 164.522 M 221.094 127.857 C 221.094 127.924 221.665 128.495 222.363 129.126 L 223.633 130.273 L 222.486 129.004 C 221.416 127.821 221.094 127.555 221.094 127.857 M 131.428 143.75 C 131.428 152.451 131.48 156.011 131.543 151.66 C 131.605 147.31 131.605 140.19 131.543 135.84 C 131.48 131.489 131.428 135.049 131.428 143.75 M 123.63 166.401 C 123.633 202.631 123.639 202.92 124.414 203 C 125.017 203.062 125.04 203.034 124.514 202.879 C 123.873 202.69 123.826 200.516 123.729 166.28 L 123.627 129.883 L 123.63 166.401 M 221.094 134.766 C 221.553 135.41 222.016 135.938 222.124 135.938 C 222.231 135.938 221.943 135.41 221.484 134.766 C 221.025 134.121 220.562 133.594 220.455 133.594 C 220.347 133.594 220.635 134.121 221.094 134.766 M 135.734 177.832 L 135.742 190.039 L 138.086 190.067 L 140.43 190.095 L 138.189 189.951 L 135.949 189.807 L 135.837 177.716 L 135.725 165.625 L 135.734 177.832 M 196.777 172.556 C 198.55 172.629 201.45 172.629 203.223 172.556 C 204.995 172.484 203.545 172.425 200 172.425 C 196.455 172.425 195.005 172.484 196.777 172.556 M 264.147 184.454 L 264.063 189.806 L 261.621 189.945 L 259.18 190.084 L 261.633 190.159 C 264.636 190.251 264.509 190.53 264.355 184.159 L 264.232 179.102 L 264.147 184.454 M 199.121 179.963 C 199.604 180.056 200.396 180.056 200.879 179.963 C 201.362 179.87 200.967 179.794 200 179.794 C 199.033 179.794 198.638 179.87 199.121 179.963 M 139.36 194.808 C 139.846 194.901 140.549 194.897 140.923 194.8 C 141.296 194.702 140.898 194.625 140.039 194.63 C 139.18 194.634 138.874 194.714 139.36 194.808 M 138.77 202.613 C 139.146 202.711 139.761 202.711 140.137 202.613 C 140.513 202.515 140.205 202.434 139.453 202.434 C 138.701 202.434 138.394 202.515 138.77 202.613" stroke-linecap="round"/>
</g>
</g>
</g>
</svg>